<svg width="36" height="37" viewBox="0 0 36 37" fill="none" xmlns="http://www.w3.org/2000/svg">
<rect y="0.342041" width="36" height="36" rx="5" fill="#FF64AE"/>
<path d="M11.3521 19.5198L10.5716 18.7394C10.2411 18.4089 10.2411 17.8745 10.5716 17.5476L17.4024 10.7132C17.7329 10.3827 18.2673 10.3827 18.5942 10.7132L25.4251 17.544C25.7556 17.8745 25.7556 18.4089 25.4251 18.7358L24.6446 19.5163C24.3106 19.8503 23.7657 19.8433 23.4388 19.5022L19.4063 15.2694V25.3733C19.4063 25.8409 19.0302 26.2171 18.5626 26.2171H17.4376C16.97 26.2171 16.5938 25.8409 16.5938 25.3733V15.2694L12.5579 19.5058C12.231 19.8503 11.686 19.8573 11.3521 19.5198Z" fill="white"/>
</svg>
