<svg width="25" height="25" viewBox="0 0 25 25" fill="none" xmlns="http://www.w3.org/2000/svg">
<path d="M12.5146 13.33L5.87402 19.9706C5.41504 20.4296 4.67285 20.4296 4.21875 19.9706L3.11523 18.8671C2.65625 18.4081 2.65625 17.6659 3.11523 17.2118L7.82227 12.5048L3.11523 7.79773C2.65625 7.33874 2.65625 6.59656 3.11523 6.14246L4.21387 5.02917C4.67285 4.57019 5.41504 4.57019 5.86914 5.02917L12.5098 11.6698C12.9736 12.1288 12.9736 12.871 12.5146 13.33ZM21.8896 11.6698L15.249 5.02917C14.79 4.57019 14.0479 4.57019 13.5938 5.02917L12.4902 6.13269C12.0312 6.59167 12.0312 7.33386 12.4902 7.78796L17.1973 12.495L12.4902 17.202C12.0312 17.661 12.0312 18.4032 12.4902 18.8573L13.5938 19.9608C14.0527 20.4198 14.7949 20.4198 15.249 19.9608L21.8896 13.3202C22.3486 12.871 22.3486 12.1288 21.8896 11.6698Z" fill="#FF64AE"/>
</svg>
